<mxfile host="Electron" modified="2023-10-03T19:30:21.305Z" agent="Mozilla/5.0 (Windows NT 10.0; Win64; x64) AppleWebKit/537.36 (KHTML, like Gecko) draw.io/22.0.2 Chrome/114.0.5735.289 Electron/25.8.4 Safari/537.36" etag="xD2fnuwcLQ30x183M_2I" version="22.0.2" type="device" pages="5">
  <diagram id="UolU5zpUcZBAJ-e2m8Ne" name="v1">
    <mxGraphModel dx="869" dy="664" grid="1" gridSize="10" guides="1" tooltips="1" connect="1" arrows="1" fold="1" page="1" pageScale="1" pageWidth="1169" pageHeight="827" math="0" shadow="0">
      <root>
        <mxCell id="PpWeEdeAQQ0kBrhYSivQ-0" />
        <mxCell id="PpWeEdeAQQ0kBrhYSivQ-1" parent="PpWeEdeAQQ0kBrhYSivQ-0" />
        <mxCell id="zQA_Fh6y0ijJh5mezsIf-6" style="edgeStyle=orthogonalEdgeStyle;rounded=0;orthogonalLoop=1;jettySize=auto;html=1;exitX=0.5;exitY=1;exitDx=0;exitDy=0;endArrow=none;endFill=0;spacingLeft=4;spacingBottom=0;spacingRight=4;" parent="PpWeEdeAQQ0kBrhYSivQ-1" source="PpWeEdeAQQ0kBrhYSivQ-3" edge="1">
          <mxGeometry relative="1" as="geometry">
            <mxPoint x="500" y="280" as="targetPoint" />
          </mxGeometry>
        </mxCell>
        <mxCell id="PpWeEdeAQQ0kBrhYSivQ-3" value="Temperature Dates" style="rounded=0;whiteSpace=wrap;html=1;fillColor=default;strokeColor=default;fontColor=default;spacingLeft=4;spacingBottom=0;spacingRight=4;" parent="PpWeEdeAQQ0kBrhYSivQ-1" vertex="1">
          <mxGeometry x="440" y="180" width="120" height="60" as="geometry" />
        </mxCell>
        <mxCell id="PpWeEdeAQQ0kBrhYSivQ-5" style="edgeStyle=orthogonalEdgeStyle;rounded=0;orthogonalLoop=1;jettySize=auto;html=1;exitX=0.5;exitY=0;exitDx=0;exitDy=0;labelBackgroundColor=default;fontColor=default;endArrow=none;endFill=0;strokeColor=default;spacingLeft=4;spacingBottom=0;spacingRight=4;" parent="PpWeEdeAQQ0kBrhYSivQ-1" source="PpWeEdeAQQ0kBrhYSivQ-6" edge="1">
          <mxGeometry relative="1" as="geometry">
            <mxPoint x="290" y="280" as="targetPoint" />
          </mxGeometry>
        </mxCell>
        <mxCell id="zQA_Fh6y0ijJh5mezsIf-0" style="edgeStyle=orthogonalEdgeStyle;rounded=0;orthogonalLoop=1;jettySize=auto;html=1;exitX=0.75;exitY=1;exitDx=0;exitDy=0;endArrow=block;endFill=1;entryX=0.5;entryY=0;entryDx=0;entryDy=0;spacingLeft=4;spacingBottom=0;spacingRight=4;" parent="PpWeEdeAQQ0kBrhYSivQ-1" source="PpWeEdeAQQ0kBrhYSivQ-6" target="zQA_Fh6y0ijJh5mezsIf-1" edge="1">
          <mxGeometry relative="1" as="geometry">
            <mxPoint x="320" y="410" as="targetPoint" />
          </mxGeometry>
        </mxCell>
        <mxCell id="PpWeEdeAQQ0kBrhYSivQ-6" value="Read data from&lt;br&gt;csv file" style="rounded=0;whiteSpace=wrap;html=1;strokeColor=default;labelBackgroundColor=none;fontColor=default;spacingLeft=4;spacingBottom=0;spacingRight=4;" parent="PpWeEdeAQQ0kBrhYSivQ-1" vertex="1">
          <mxGeometry x="230" y="319.18" width="120" height="60" as="geometry" />
        </mxCell>
        <mxCell id="PpWeEdeAQQ0kBrhYSivQ-9" style="edgeStyle=orthogonalEdgeStyle;rounded=0;orthogonalLoop=1;jettySize=auto;html=1;exitX=0.5;exitY=0;exitDx=0;exitDy=0;labelBackgroundColor=default;fontColor=default;endArrow=none;endFill=0;strokeColor=default;spacingLeft=4;spacingBottom=0;spacingRight=4;" parent="PpWeEdeAQQ0kBrhYSivQ-1" source="PpWeEdeAQQ0kBrhYSivQ-10" edge="1">
          <mxGeometry relative="1" as="geometry">
            <mxPoint x="710" y="280" as="targetPoint" />
            <Array as="points">
              <mxPoint x="710" y="280" />
            </Array>
          </mxGeometry>
        </mxCell>
        <mxCell id="zQA_Fh6y0ijJh5mezsIf-9" style="edgeStyle=orthogonalEdgeStyle;rounded=0;orthogonalLoop=1;jettySize=auto;html=1;exitX=0.25;exitY=1;exitDx=0;exitDy=0;endArrow=none;endFill=0;startArrow=block;startFill=1;spacingLeft=4;spacingBottom=0;spacingRight=4;entryX=0.5;entryY=0;entryDx=0;entryDy=0;" parent="PpWeEdeAQQ0kBrhYSivQ-1" source="PpWeEdeAQQ0kBrhYSivQ-10" edge="1" target="NtJ00eM1vXrOw251iR5x-4">
          <mxGeometry relative="1" as="geometry">
            <mxPoint x="679.8571428571429" y="420" as="targetPoint" />
          </mxGeometry>
        </mxCell>
        <mxCell id="PpWeEdeAQQ0kBrhYSivQ-10" value="Write data to&lt;br&gt;csv file" style="rounded=0;whiteSpace=wrap;html=1;strokeColor=default;labelBackgroundColor=none;fontColor=default;spacingLeft=4;spacingBottom=0;spacingRight=4;" parent="PpWeEdeAQQ0kBrhYSivQ-1" vertex="1">
          <mxGeometry x="650" y="320" width="120" height="60" as="geometry" />
        </mxCell>
        <mxCell id="PpWeEdeAQQ0kBrhYSivQ-12" value="" style="endArrow=none;html=1;strokeColor=default;labelBackgroundColor=default;fontColor=default;spacingLeft=4;spacingBottom=0;spacingRight=4;" parent="PpWeEdeAQQ0kBrhYSivQ-1" edge="1">
          <mxGeometry width="50" height="50" relative="1" as="geometry">
            <mxPoint x="290" y="280" as="sourcePoint" />
            <mxPoint x="710" y="280" as="targetPoint" />
          </mxGeometry>
        </mxCell>
        <mxCell id="zQA_Fh6y0ijJh5mezsIf-4" style="edgeStyle=orthogonalEdgeStyle;rounded=0;orthogonalLoop=1;jettySize=auto;html=1;exitX=0.5;exitY=0;exitDx=0;exitDy=0;endArrow=none;endFill=0;spacingLeft=4;spacingBottom=0;spacingRight=4;" parent="PpWeEdeAQQ0kBrhYSivQ-1" source="PpWeEdeAQQ0kBrhYSivQ-15" edge="1">
          <mxGeometry relative="1" as="geometry">
            <mxPoint x="430" y="280" as="targetPoint" />
          </mxGeometry>
        </mxCell>
        <mxCell id="NtJ00eM1vXrOw251iR5x-2" style="edgeStyle=orthogonalEdgeStyle;rounded=0;orthogonalLoop=1;jettySize=auto;html=1;exitX=0.25;exitY=1;exitDx=0;exitDy=0;entryX=0.5;entryY=0;entryDx=0;entryDy=0;endArrow=none;endFill=0;startArrow=block;startFill=1;spacingBottom=0;" edge="1" parent="PpWeEdeAQQ0kBrhYSivQ-1" source="PpWeEdeAQQ0kBrhYSivQ-15" target="NtJ00eM1vXrOw251iR5x-1">
          <mxGeometry relative="1" as="geometry" />
        </mxCell>
        <mxCell id="NtJ00eM1vXrOw251iR5x-3" style="rounded=0;orthogonalLoop=1;jettySize=auto;html=1;exitX=0.75;exitY=1;exitDx=0;exitDy=0;entryX=0.5;entryY=0;entryDx=0;entryDy=0;endArrow=block;endFill=1;spacingBottom=0;" edge="1" parent="PpWeEdeAQQ0kBrhYSivQ-1" source="PpWeEdeAQQ0kBrhYSivQ-15" target="NtJ00eM1vXrOw251iR5x-0">
          <mxGeometry relative="1" as="geometry" />
        </mxCell>
        <mxCell id="PpWeEdeAQQ0kBrhYSivQ-15" value="Convert temperatures from Fahrenheit to Celsius (1 dp)" style="rounded=0;whiteSpace=wrap;html=1;fontColor=default;spacingLeft=4;spacingBottom=0;spacingRight=4;" parent="PpWeEdeAQQ0kBrhYSivQ-1" vertex="1">
          <mxGeometry x="370" y="319.18" width="120" height="70.82" as="geometry" />
        </mxCell>
        <mxCell id="zQA_Fh6y0ijJh5mezsIf-1" value="dates()&lt;br&gt;times()&lt;br&gt;temps()" style="text;html=1;strokeColor=none;fillColor=none;align=center;verticalAlign=top;whiteSpace=wrap;rounded=0;spacingLeft=4;spacingBottom=0;spacingRight=4;" parent="PpWeEdeAQQ0kBrhYSivQ-1" vertex="1">
          <mxGeometry x="290" y="430" width="60" height="60" as="geometry" />
        </mxCell>
        <mxCell id="zQA_Fh6y0ijJh5mezsIf-5" style="edgeStyle=orthogonalEdgeStyle;rounded=0;orthogonalLoop=1;jettySize=auto;html=1;exitX=0.5;exitY=0;exitDx=0;exitDy=0;endArrow=none;endFill=0;spacingLeft=4;spacingBottom=0;spacingRight=4;" parent="PpWeEdeAQQ0kBrhYSivQ-1" source="zQA_Fh6y0ijJh5mezsIf-3" edge="1">
          <mxGeometry relative="1" as="geometry">
            <mxPoint x="570" y="280" as="targetPoint" />
          </mxGeometry>
        </mxCell>
        <mxCell id="NtJ00eM1vXrOw251iR5x-6" style="edgeStyle=none;shape=connector;rounded=0;orthogonalLoop=1;jettySize=auto;html=1;exitX=0.25;exitY=1;exitDx=0;exitDy=0;entryX=0.5;entryY=0;entryDx=0;entryDy=0;labelBackgroundColor=default;strokeColor=default;align=center;verticalAlign=middle;fontFamily=Helvetica;fontSize=11;fontColor=default;endArrow=none;endFill=0;startArrow=block;startFill=1;spacingBottom=0;" edge="1" parent="PpWeEdeAQQ0kBrhYSivQ-1" source="zQA_Fh6y0ijJh5mezsIf-3" target="NtJ00eM1vXrOw251iR5x-5">
          <mxGeometry relative="1" as="geometry" />
        </mxCell>
        <mxCell id="NtJ00eM1vXrOw251iR5x-8" style="edgeStyle=none;shape=connector;rounded=0;orthogonalLoop=1;jettySize=auto;html=1;exitX=0.75;exitY=1;exitDx=0;exitDy=0;entryX=0.5;entryY=0;entryDx=0;entryDy=0;labelBackgroundColor=default;strokeColor=default;align=center;verticalAlign=middle;fontFamily=Helvetica;fontSize=11;fontColor=default;endArrow=block;endFill=1;spacingBottom=0;" edge="1" parent="PpWeEdeAQQ0kBrhYSivQ-1" source="zQA_Fh6y0ijJh5mezsIf-3" target="NtJ00eM1vXrOw251iR5x-7">
          <mxGeometry relative="1" as="geometry" />
        </mxCell>
        <mxCell id="zQA_Fh6y0ijJh5mezsIf-3" value="Convert dates from US to ISO format" style="rounded=0;whiteSpace=wrap;html=1;fontColor=default;spacingLeft=4;spacingBottom=0;spacingRight=4;" parent="PpWeEdeAQQ0kBrhYSivQ-1" vertex="1">
          <mxGeometry x="510" y="320" width="120" height="60" as="geometry" />
        </mxCell>
        <mxCell id="NtJ00eM1vXrOw251iR5x-0" value="temps()" style="text;html=1;strokeColor=none;fillColor=none;align=center;verticalAlign=top;whiteSpace=wrap;rounded=0;spacingLeft=4;spacingBottom=0;spacingRight=4;" vertex="1" parent="PpWeEdeAQQ0kBrhYSivQ-1">
          <mxGeometry x="430" y="430" width="60" height="30" as="geometry" />
        </mxCell>
        <mxCell id="NtJ00eM1vXrOw251iR5x-1" value="temps()" style="text;html=1;strokeColor=none;fillColor=none;align=center;verticalAlign=top;whiteSpace=wrap;rounded=0;spacingLeft=4;spacingBottom=0;spacingRight=4;" vertex="1" parent="PpWeEdeAQQ0kBrhYSivQ-1">
          <mxGeometry x="370" y="470" width="60" height="30" as="geometry" />
        </mxCell>
        <mxCell id="NtJ00eM1vXrOw251iR5x-4" value="dates()&lt;br&gt;times()&lt;br&gt;temps()" style="text;html=1;strokeColor=none;fillColor=none;align=center;verticalAlign=top;whiteSpace=wrap;rounded=0;spacingLeft=4;spacingBottom=0;spacingRight=4;" vertex="1" parent="PpWeEdeAQQ0kBrhYSivQ-1">
          <mxGeometry x="650" y="470" width="60" height="60" as="geometry" />
        </mxCell>
        <mxCell id="NtJ00eM1vXrOw251iR5x-5" value="dates()" style="text;html=1;strokeColor=none;fillColor=none;align=center;verticalAlign=top;whiteSpace=wrap;rounded=0;spacingLeft=4;spacingBottom=0;spacingRight=4;" vertex="1" parent="PpWeEdeAQQ0kBrhYSivQ-1">
          <mxGeometry x="510" y="470" width="60" height="30" as="geometry" />
        </mxCell>
        <mxCell id="NtJ00eM1vXrOw251iR5x-7" value="dates()" style="text;html=1;strokeColor=none;fillColor=none;align=center;verticalAlign=top;whiteSpace=wrap;rounded=0;spacingLeft=4;spacingBottom=0;spacingRight=4;" vertex="1" parent="PpWeEdeAQQ0kBrhYSivQ-1">
          <mxGeometry x="570" y="430" width="60" height="30" as="geometry" />
        </mxCell>
      </root>
    </mxGraphModel>
  </diagram>
  <diagram name="v2" id="YDQNS_Aee8Q8ZEGUQu5a">
    <mxGraphModel dx="869" dy="664" grid="1" gridSize="10" guides="1" tooltips="1" connect="1" arrows="1" fold="1" page="1" pageScale="1" pageWidth="1169" pageHeight="827" math="0" shadow="0">
      <root>
        <mxCell id="PpWeEdeAQQ0kBrhYSivQ-0" />
        <mxCell id="PpWeEdeAQQ0kBrhYSivQ-1" parent="PpWeEdeAQQ0kBrhYSivQ-0" />
        <mxCell id="PpWeEdeAQQ0kBrhYSivQ-2" style="edgeStyle=orthogonalEdgeStyle;rounded=0;orthogonalLoop=1;jettySize=auto;html=1;exitX=0.5;exitY=1;exitDx=0;exitDy=0;entryX=0.5;entryY=0;entryDx=0;entryDy=0;labelBackgroundColor=default;fontColor=default;strokeColor=default;endArrow=none;endFill=0;" parent="PpWeEdeAQQ0kBrhYSivQ-1" source="PpWeEdeAQQ0kBrhYSivQ-3" target="PpWeEdeAQQ0kBrhYSivQ-15" edge="1">
          <mxGeometry relative="1" as="geometry" />
        </mxCell>
        <mxCell id="PpWeEdeAQQ0kBrhYSivQ-3" value="Temperatures" style="rounded=0;whiteSpace=wrap;html=1;fillColor=default;strokeColor=default;fontColor=default;" parent="PpWeEdeAQQ0kBrhYSivQ-1" vertex="1">
          <mxGeometry x="400" y="180" width="120" height="60" as="geometry" />
        </mxCell>
        <mxCell id="PpWeEdeAQQ0kBrhYSivQ-5" style="edgeStyle=orthogonalEdgeStyle;rounded=0;orthogonalLoop=1;jettySize=auto;html=1;exitX=0.5;exitY=0;exitDx=0;exitDy=0;labelBackgroundColor=default;fontColor=default;endArrow=none;endFill=0;strokeColor=default;" parent="PpWeEdeAQQ0kBrhYSivQ-1" source="PpWeEdeAQQ0kBrhYSivQ-6" edge="1">
          <mxGeometry relative="1" as="geometry">
            <mxPoint x="260" y="280" as="targetPoint" />
          </mxGeometry>
        </mxCell>
        <mxCell id="PpWeEdeAQQ0kBrhYSivQ-6" value="Read data from csv file" style="rounded=0;whiteSpace=wrap;html=1;strokeColor=default;labelBackgroundColor=default;fontColor=default;spacingLeft=4;spacingRight=4;" parent="PpWeEdeAQQ0kBrhYSivQ-1" vertex="1">
          <mxGeometry x="200" y="319.18" width="120" height="70.82" as="geometry" />
        </mxCell>
        <mxCell id="PpWeEdeAQQ0kBrhYSivQ-9" style="edgeStyle=orthogonalEdgeStyle;rounded=0;orthogonalLoop=1;jettySize=auto;html=1;exitX=0.5;exitY=0;exitDx=0;exitDy=0;labelBackgroundColor=default;fontColor=default;endArrow=none;endFill=0;strokeColor=default;" parent="PpWeEdeAQQ0kBrhYSivQ-1" source="PpWeEdeAQQ0kBrhYSivQ-10" edge="1">
          <mxGeometry relative="1" as="geometry">
            <mxPoint x="660" y="280" as="targetPoint" />
          </mxGeometry>
        </mxCell>
        <mxCell id="PpWeEdeAQQ0kBrhYSivQ-10" value="Write data to new csv file" style="rounded=0;whiteSpace=wrap;html=1;strokeColor=default;labelBackgroundColor=default;fontColor=default;spacingLeft=4;spacingRight=4;" parent="PpWeEdeAQQ0kBrhYSivQ-1" vertex="1">
          <mxGeometry x="600" y="319.18" width="120" height="70.82" as="geometry" />
        </mxCell>
        <mxCell id="PpWeEdeAQQ0kBrhYSivQ-12" value="" style="endArrow=none;html=1;strokeColor=default;labelBackgroundColor=default;fontColor=default;" parent="PpWeEdeAQQ0kBrhYSivQ-1" edge="1">
          <mxGeometry width="50" height="50" relative="1" as="geometry">
            <mxPoint x="260" y="280" as="sourcePoint" />
            <mxPoint x="660" y="280" as="targetPoint" />
          </mxGeometry>
        </mxCell>
        <mxCell id="PpWeEdeAQQ0kBrhYSivQ-15" value="Convert temperatures from Fahrenheit to Celsius (1 dp)" style="rounded=0;whiteSpace=wrap;html=1;fontColor=default;spacingLeft=4;spacingRight=4;" parent="PpWeEdeAQQ0kBrhYSivQ-1" vertex="1">
          <mxGeometry x="400" y="320" width="120" height="70" as="geometry" />
        </mxCell>
      </root>
    </mxGraphModel>
  </diagram>
  <diagram name="v3" id="lh_9ZSjdZzqyi73AcJHk">
    <mxGraphModel dx="869" dy="664" grid="1" gridSize="10" guides="1" tooltips="1" connect="1" arrows="1" fold="1" page="1" pageScale="1" pageWidth="1169" pageHeight="827" math="0" shadow="0">
      <root>
        <mxCell id="G-fJOfh1Eo4FLukb0Mk1-0" />
        <mxCell id="G-fJOfh1Eo4FLukb0Mk1-1" parent="G-fJOfh1Eo4FLukb0Mk1-0" />
        <mxCell id="sk0_wfUYIi8O1wOgkIli-0" style="edgeStyle=orthogonalEdgeStyle;rounded=0;orthogonalLoop=1;jettySize=auto;html=1;exitX=0.5;exitY=1;exitDx=0;exitDy=0;entryX=0.5;entryY=0;entryDx=0;entryDy=0;labelBackgroundColor=default;fontColor=default;strokeColor=default;endArrow=none;endFill=0;" parent="G-fJOfh1Eo4FLukb0Mk1-1" source="G-fJOfh1Eo4FLukb0Mk1-3" target="G-fJOfh1Eo4FLukb0Mk1-15" edge="1">
          <mxGeometry relative="1" as="geometry" />
        </mxCell>
        <mxCell id="G-fJOfh1Eo4FLukb0Mk1-3" value="Temperatures" style="rounded=0;whiteSpace=wrap;html=1;fillColor=default;strokeColor=default;fontColor=default;" parent="G-fJOfh1Eo4FLukb0Mk1-1" vertex="1">
          <mxGeometry x="400" y="180" width="120" height="60" as="geometry" />
        </mxCell>
        <mxCell id="G-fJOfh1Eo4FLukb0Mk1-4" style="edgeStyle=orthogonalEdgeStyle;rounded=0;orthogonalLoop=1;jettySize=auto;html=1;exitX=0.75;exitY=1;exitDx=0;exitDy=0;startArrow=none;startFill=0;endArrow=block;endFill=1;strokeColor=default;labelBackgroundColor=default;fontColor=default;" parent="G-fJOfh1Eo4FLukb0Mk1-1" edge="1">
          <mxGeometry relative="1" as="geometry">
            <mxPoint x="290" y="410" as="targetPoint" />
            <mxPoint x="290" y="390.00000000000006" as="sourcePoint" />
          </mxGeometry>
        </mxCell>
        <mxCell id="sk0_wfUYIi8O1wOgkIli-2" style="edgeStyle=orthogonalEdgeStyle;rounded=0;orthogonalLoop=1;jettySize=auto;html=1;exitX=0.5;exitY=0;exitDx=0;exitDy=0;labelBackgroundColor=default;fontColor=default;endArrow=none;endFill=0;strokeColor=default;" parent="G-fJOfh1Eo4FLukb0Mk1-1" source="G-fJOfh1Eo4FLukb0Mk1-6" edge="1">
          <mxGeometry relative="1" as="geometry">
            <mxPoint x="260" y="280" as="targetPoint" />
          </mxGeometry>
        </mxCell>
        <mxCell id="G-fJOfh1Eo4FLukb0Mk1-6" value="Read data from csv file" style="rounded=0;whiteSpace=wrap;html=1;strokeColor=default;labelBackgroundColor=default;fontColor=default;spacingLeft=4;spacingRight=4;" parent="G-fJOfh1Eo4FLukb0Mk1-1" vertex="1">
          <mxGeometry x="200" y="319.18" width="120" height="70.82" as="geometry" />
        </mxCell>
        <mxCell id="G-fJOfh1Eo4FLukb0Mk1-7" value="dates(), times(), tempFs()" style="text;html=1;strokeColor=none;fillColor=none;align=center;verticalAlign=middle;whiteSpace=wrap;rounded=0;" parent="G-fJOfh1Eo4FLukb0Mk1-1" vertex="1">
          <mxGeometry x="220" y="414" width="140" height="20" as="geometry" />
        </mxCell>
        <mxCell id="sk0_wfUYIi8O1wOgkIli-1" style="edgeStyle=orthogonalEdgeStyle;rounded=0;orthogonalLoop=1;jettySize=auto;html=1;exitX=0.5;exitY=0;exitDx=0;exitDy=0;labelBackgroundColor=default;fontColor=default;endArrow=none;endFill=0;strokeColor=default;" parent="G-fJOfh1Eo4FLukb0Mk1-1" source="G-fJOfh1Eo4FLukb0Mk1-10" edge="1">
          <mxGeometry relative="1" as="geometry">
            <mxPoint x="660" y="280" as="targetPoint" />
          </mxGeometry>
        </mxCell>
        <mxCell id="NRt5Hg4WPn0tRWVujLKN-1" style="edgeStyle=orthogonalEdgeStyle;rounded=0;orthogonalLoop=1;jettySize=auto;html=1;exitX=0.25;exitY=1;exitDx=0;exitDy=0;entryX=0.5;entryY=0;entryDx=0;entryDy=0;endArrow=none;endFill=0;startArrow=block;startFill=1;" parent="G-fJOfh1Eo4FLukb0Mk1-1" source="G-fJOfh1Eo4FLukb0Mk1-10" target="G-fJOfh1Eo4FLukb0Mk1-17" edge="1">
          <mxGeometry relative="1" as="geometry" />
        </mxCell>
        <mxCell id="G-fJOfh1Eo4FLukb0Mk1-10" value="Write data to new csv file" style="rounded=0;whiteSpace=wrap;html=1;strokeColor=default;labelBackgroundColor=default;fontColor=default;spacingLeft=4;spacingRight=4;" parent="G-fJOfh1Eo4FLukb0Mk1-1" vertex="1">
          <mxGeometry x="600" y="319.18" width="120" height="70.82" as="geometry" />
        </mxCell>
        <mxCell id="G-fJOfh1Eo4FLukb0Mk1-11" value="tempFs()" style="text;html=1;strokeColor=none;fillColor=none;align=center;verticalAlign=middle;whiteSpace=wrap;rounded=0;fontColor=default;" parent="G-fJOfh1Eo4FLukb0Mk1-1" vertex="1">
          <mxGeometry x="400" y="450.82" width="60" height="20" as="geometry" />
        </mxCell>
        <mxCell id="G-fJOfh1Eo4FLukb0Mk1-12" value="" style="endArrow=none;html=1;strokeColor=default;labelBackgroundColor=default;fontColor=default;" parent="G-fJOfh1Eo4FLukb0Mk1-1" edge="1">
          <mxGeometry width="50" height="50" relative="1" as="geometry">
            <mxPoint x="260" y="280" as="sourcePoint" />
            <mxPoint x="660" y="280" as="targetPoint" />
          </mxGeometry>
        </mxCell>
        <mxCell id="G-fJOfh1Eo4FLukb0Mk1-13" style="edgeStyle=orthogonalEdgeStyle;rounded=0;orthogonalLoop=1;jettySize=auto;html=1;exitX=0.75;exitY=1;exitDx=0;exitDy=0;endArrow=block;endFill=1;fontColor=default;" parent="G-fJOfh1Eo4FLukb0Mk1-1" edge="1">
          <mxGeometry relative="1" as="geometry">
            <mxPoint x="490" y="410.82" as="targetPoint" />
            <mxPoint x="490" y="390.82" as="sourcePoint" />
          </mxGeometry>
        </mxCell>
        <mxCell id="G-fJOfh1Eo4FLukb0Mk1-14" style="edgeStyle=orthogonalEdgeStyle;rounded=0;orthogonalLoop=1;jettySize=auto;html=1;exitX=0.25;exitY=1;exitDx=0;exitDy=0;endArrow=none;endFill=0;startArrow=block;startFill=1;fontColor=default;" parent="G-fJOfh1Eo4FLukb0Mk1-1" edge="1">
          <mxGeometry relative="1" as="geometry">
            <mxPoint x="430" y="450.82" as="targetPoint" />
            <mxPoint x="430" y="390.82" as="sourcePoint" />
          </mxGeometry>
        </mxCell>
        <mxCell id="G-fJOfh1Eo4FLukb0Mk1-15" value="Convert temperatures from Fahrenheit to Celsius (1 dp)" style="rounded=0;whiteSpace=wrap;html=1;fontColor=default;spacingLeft=4;spacingRight=4;" parent="G-fJOfh1Eo4FLukb0Mk1-1" vertex="1">
          <mxGeometry x="400" y="320" width="120" height="70" as="geometry" />
        </mxCell>
        <mxCell id="G-fJOfh1Eo4FLukb0Mk1-16" value="tempCs()" style="text;html=1;strokeColor=none;fillColor=none;align=center;verticalAlign=middle;whiteSpace=wrap;rounded=0;fontColor=default;" parent="G-fJOfh1Eo4FLukb0Mk1-1" vertex="1">
          <mxGeometry x="465" y="410.82" width="50" height="20" as="geometry" />
        </mxCell>
        <mxCell id="G-fJOfh1Eo4FLukb0Mk1-17" value="dates(), times(), tempCs()" style="text;html=1;strokeColor=none;fillColor=none;align=center;verticalAlign=middle;whiteSpace=wrap;rounded=0;fontColor=default;labelBackgroundColor=default;" parent="G-fJOfh1Eo4FLukb0Mk1-1" vertex="1">
          <mxGeometry x="560" y="450.82" width="140" height="20" as="geometry" />
        </mxCell>
      </root>
    </mxGraphModel>
  </diagram>
  <diagram id="ZNbHwy5cK5Rr-_jEwm6u" name="v4">
    <mxGraphModel dx="869" dy="664" grid="1" gridSize="10" guides="1" tooltips="1" connect="1" arrows="1" fold="1" page="1" pageScale="1" pageWidth="1169" pageHeight="827" math="0" shadow="0">
      <root>
        <mxCell id="0" />
        <mxCell id="1" parent="0" />
        <mxCell id="DsLf0QopSZqnFC2-uecv-37" style="edgeStyle=orthogonalEdgeStyle;rounded=0;orthogonalLoop=1;jettySize=auto;html=1;endArrow=none;endFill=0;entryX=0.5;entryY=0;entryDx=0;entryDy=0;" parent="1" target="DsLf0QopSZqnFC2-uecv-33" edge="1">
          <mxGeometry relative="1" as="geometry">
            <mxPoint x="400" y="450" as="targetPoint" />
            <mxPoint x="400" y="280" as="sourcePoint" />
          </mxGeometry>
        </mxCell>
        <mxCell id="DsLf0QopSZqnFC2-uecv-2" value="Temperatures" style="rounded=0;whiteSpace=wrap;html=1;" parent="1" vertex="1">
          <mxGeometry x="460" y="200" width="120" height="60" as="geometry" />
        </mxCell>
        <mxCell id="DsLf0QopSZqnFC2-uecv-3" style="edgeStyle=orthogonalEdgeStyle;rounded=0;orthogonalLoop=1;jettySize=auto;html=1;exitX=0.75;exitY=1;exitDx=0;exitDy=0;startArrow=none;startFill=0;endArrow=block;endFill=1;" parent="1" source="DsLf0QopSZqnFC2-uecv-5" edge="1">
          <mxGeometry relative="1" as="geometry">
            <mxPoint x="310" y="400" as="targetPoint" />
          </mxGeometry>
        </mxCell>
        <mxCell id="DsLf0QopSZqnFC2-uecv-4" style="edgeStyle=orthogonalEdgeStyle;rounded=0;orthogonalLoop=1;jettySize=auto;html=1;exitX=0.5;exitY=0;exitDx=0;exitDy=0;startArrow=none;startFill=0;endArrow=none;endFill=0;" parent="1" source="DsLf0QopSZqnFC2-uecv-5" edge="1">
          <mxGeometry relative="1" as="geometry">
            <mxPoint x="280" y="280" as="targetPoint" />
          </mxGeometry>
        </mxCell>
        <mxCell id="DsLf0QopSZqnFC2-uecv-5" value="Read data from csv file" style="rounded=0;whiteSpace=wrap;html=1;" parent="1" vertex="1">
          <mxGeometry x="220" y="320" width="120" height="60" as="geometry" />
        </mxCell>
        <mxCell id="DsLf0QopSZqnFC2-uecv-6" value="dates( ), times( ), tempF( )" style="text;html=1;strokeColor=none;fillColor=none;align=center;verticalAlign=middle;whiteSpace=wrap;rounded=0;" parent="1" vertex="1">
          <mxGeometry x="230" y="398" width="160" height="20" as="geometry" />
        </mxCell>
        <mxCell id="DsLf0QopSZqnFC2-uecv-9" style="edgeStyle=orthogonalEdgeStyle;rounded=0;orthogonalLoop=1;jettySize=auto;html=1;exitX=0.5;exitY=0;exitDx=0;exitDy=0;startArrow=none;startFill=0;endArrow=none;endFill=0;" parent="1" source="DsLf0QopSZqnFC2-uecv-10" edge="1">
          <mxGeometry relative="1" as="geometry">
            <mxPoint x="760" y="279.18" as="targetPoint" />
          </mxGeometry>
        </mxCell>
        <mxCell id="DsLf0QopSZqnFC2-uecv-38" style="edgeStyle=orthogonalEdgeStyle;rounded=0;orthogonalLoop=1;jettySize=auto;html=1;exitX=0.25;exitY=1;exitDx=0;exitDy=0;entryX=0.5;entryY=0;entryDx=0;entryDy=0;endArrow=none;endFill=0;startArrow=block;startFill=1;" parent="1" source="DsLf0QopSZqnFC2-uecv-10" target="DsLf0QopSZqnFC2-uecv-36" edge="1">
          <mxGeometry relative="1" as="geometry">
            <mxPoint x="730.1600000000001" y="439.99999999999994" as="targetPoint" />
          </mxGeometry>
        </mxCell>
        <mxCell id="DsLf0QopSZqnFC2-uecv-10" value="Write data to new txt file" style="rounded=0;whiteSpace=wrap;html=1;" parent="1" vertex="1">
          <mxGeometry x="700" y="319.18" width="120" height="60" as="geometry" />
        </mxCell>
        <mxCell id="DsLf0QopSZqnFC2-uecv-12" value="tempF( )" style="text;html=1;strokeColor=none;fillColor=none;align=center;verticalAlign=middle;whiteSpace=wrap;rounded=0;" parent="1" vertex="1">
          <mxGeometry x="340" y="600" width="60" height="20" as="geometry" />
        </mxCell>
        <mxCell id="DsLf0QopSZqnFC2-uecv-29" value="" style="endArrow=none;html=1;" parent="1" edge="1">
          <mxGeometry width="50" height="50" relative="1" as="geometry">
            <mxPoint x="280" y="280" as="sourcePoint" />
            <mxPoint x="760" y="280" as="targetPoint" />
          </mxGeometry>
        </mxCell>
        <mxCell id="DsLf0QopSZqnFC2-uecv-30" style="edgeStyle=orthogonalEdgeStyle;rounded=0;orthogonalLoop=1;jettySize=auto;html=1;exitX=0.75;exitY=1;exitDx=0;exitDy=0;endArrow=block;endFill=1;" parent="1" source="DsLf0QopSZqnFC2-uecv-33" edge="1">
          <mxGeometry relative="1" as="geometry">
            <mxPoint x="430" y="560" as="targetPoint" />
          </mxGeometry>
        </mxCell>
        <mxCell id="DsLf0QopSZqnFC2-uecv-31" style="edgeStyle=orthogonalEdgeStyle;rounded=0;orthogonalLoop=1;jettySize=auto;html=1;exitX=0.25;exitY=1;exitDx=0;exitDy=0;endArrow=none;endFill=0;startArrow=block;startFill=1;" parent="1" source="DsLf0QopSZqnFC2-uecv-33" edge="1">
          <mxGeometry relative="1" as="geometry">
            <mxPoint x="370" y="600" as="targetPoint" />
          </mxGeometry>
        </mxCell>
        <mxCell id="DsLf0QopSZqnFC2-uecv-33" value="Convert temperatures from Fahrenheit to Celsius (1 dp)" style="rounded=0;whiteSpace=wrap;html=1;" parent="1" vertex="1">
          <mxGeometry x="340" y="480" width="120" height="60" as="geometry" />
        </mxCell>
        <mxCell id="DsLf0QopSZqnFC2-uecv-35" value="tempC( )" style="text;html=1;strokeColor=none;fillColor=none;align=center;verticalAlign=middle;whiteSpace=wrap;rounded=0;" parent="1" vertex="1">
          <mxGeometry x="405" y="560" width="50" height="20" as="geometry" />
        </mxCell>
        <mxCell id="DsLf0QopSZqnFC2-uecv-36" value="dates( ), times( ), tempC( )&lt;br&gt;minTemp, maxTemp" style="text;html=1;strokeColor=none;fillColor=none;align=center;verticalAlign=middle;whiteSpace=wrap;rounded=0;" parent="1" vertex="1">
          <mxGeometry x="650" y="435" width="160" height="30" as="geometry" />
        </mxCell>
        <mxCell id="Gp9Q5r8-r0XlVwbsCWL8-2" style="edgeStyle=orthogonalEdgeStyle;rounded=0;orthogonalLoop=1;jettySize=auto;html=1;exitX=0.5;exitY=0;exitDx=0;exitDy=0;startArrow=none;startFill=0;endArrow=none;endFill=0;entryX=0.5;entryY=1;entryDx=0;entryDy=0;" parent="1" source="Gp9Q5r8-r0XlVwbsCWL8-4" target="DsLf0QopSZqnFC2-uecv-2" edge="1">
          <mxGeometry relative="1" as="geometry">
            <mxPoint x="520" y="279.18000000000006" as="targetPoint" />
          </mxGeometry>
        </mxCell>
        <mxCell id="Gp9Q5r8-r0XlVwbsCWL8-3" style="edgeStyle=orthogonalEdgeStyle;rounded=0;orthogonalLoop=1;jettySize=auto;html=1;exitX=0.25;exitY=1;exitDx=0;exitDy=0;entryX=0.5;entryY=0;entryDx=0;entryDy=0;endArrow=none;endFill=0;startArrow=block;startFill=1;" parent="1" source="Gp9Q5r8-r0XlVwbsCWL8-4" target="Gp9Q5r8-r0XlVwbsCWL8-5" edge="1">
          <mxGeometry relative="1" as="geometry">
            <mxPoint x="490.1600000000001" y="440" as="targetPoint" />
          </mxGeometry>
        </mxCell>
        <mxCell id="Gp9Q5r8-r0XlVwbsCWL8-4" value="Find minimum temperature" style="rounded=0;whiteSpace=wrap;html=1;" parent="1" vertex="1">
          <mxGeometry x="460" y="319.18" width="120" height="60" as="geometry" />
        </mxCell>
        <mxCell id="Gp9Q5r8-r0XlVwbsCWL8-5" value="tempC( )" style="text;html=1;strokeColor=none;fillColor=none;align=center;verticalAlign=middle;whiteSpace=wrap;rounded=0;" parent="1" vertex="1">
          <mxGeometry x="460" y="435" width="60" height="20" as="geometry" />
        </mxCell>
        <mxCell id="Gp9Q5r8-r0XlVwbsCWL8-7" style="edgeStyle=orthogonalEdgeStyle;rounded=0;orthogonalLoop=1;jettySize=auto;html=1;exitX=0.75;exitY=1;exitDx=0;exitDy=0;startArrow=none;startFill=0;endArrow=block;endFill=1;" parent="1" edge="1">
          <mxGeometry relative="1" as="geometry">
            <mxPoint x="550" y="399.18" as="targetPoint" />
            <mxPoint x="550" y="379.18" as="sourcePoint" />
            <Array as="points">
              <mxPoint x="550" y="399" />
              <mxPoint x="550" y="399" />
            </Array>
          </mxGeometry>
        </mxCell>
        <mxCell id="Gp9Q5r8-r0XlVwbsCWL8-8" value="minTemp" style="text;html=1;strokeColor=none;fillColor=none;align=center;verticalAlign=middle;whiteSpace=wrap;rounded=0;" parent="1" vertex="1">
          <mxGeometry x="520" y="400" width="60" height="16" as="geometry" />
        </mxCell>
        <mxCell id="Gp9Q5r8-r0XlVwbsCWL8-9" style="edgeStyle=orthogonalEdgeStyle;rounded=0;orthogonalLoop=1;jettySize=auto;html=1;exitX=0.5;exitY=0;exitDx=0;exitDy=0;startArrow=none;startFill=0;endArrow=none;endFill=0;" parent="1" source="Gp9Q5r8-r0XlVwbsCWL8-11" edge="1">
          <mxGeometry relative="1" as="geometry">
            <mxPoint x="640" y="280" as="targetPoint" />
          </mxGeometry>
        </mxCell>
        <mxCell id="Gp9Q5r8-r0XlVwbsCWL8-10" style="edgeStyle=orthogonalEdgeStyle;rounded=0;orthogonalLoop=1;jettySize=auto;html=1;exitX=0.25;exitY=1;exitDx=0;exitDy=0;entryX=0.476;entryY=0.041;entryDx=0;entryDy=0;entryPerimeter=0;endArrow=none;endFill=0;startArrow=block;startFill=1;" parent="1" source="Gp9Q5r8-r0XlVwbsCWL8-11" edge="1">
          <mxGeometry relative="1" as="geometry">
            <mxPoint x="610.1600000000001" y="600.8199999999999" as="targetPoint" />
          </mxGeometry>
        </mxCell>
        <mxCell id="Gp9Q5r8-r0XlVwbsCWL8-11" value="Find maximum temperature" style="rounded=0;whiteSpace=wrap;html=1;" parent="1" vertex="1">
          <mxGeometry x="580" y="480" width="120" height="60" as="geometry" />
        </mxCell>
        <mxCell id="Gp9Q5r8-r0XlVwbsCWL8-12" value="tempC( )" style="text;html=1;strokeColor=none;fillColor=none;align=center;verticalAlign=middle;whiteSpace=wrap;rounded=0;" parent="1" vertex="1">
          <mxGeometry x="580" y="599.9999999999999" width="60" height="20" as="geometry" />
        </mxCell>
        <mxCell id="Gp9Q5r8-r0XlVwbsCWL8-13" style="edgeStyle=orthogonalEdgeStyle;rounded=0;orthogonalLoop=1;jettySize=auto;html=1;exitX=0.75;exitY=1;exitDx=0;exitDy=0;startArrow=none;startFill=0;endArrow=block;endFill=1;" parent="1" edge="1">
          <mxGeometry relative="1" as="geometry">
            <mxPoint x="670" y="560.82" as="targetPoint" />
            <mxPoint x="670" y="540.82" as="sourcePoint" />
          </mxGeometry>
        </mxCell>
        <mxCell id="Gp9Q5r8-r0XlVwbsCWL8-14" value="maxTemp" style="text;html=1;strokeColor=none;fillColor=none;align=center;verticalAlign=middle;whiteSpace=wrap;rounded=0;" parent="1" vertex="1">
          <mxGeometry x="640" y="559.9999999999999" width="60" height="20" as="geometry" />
        </mxCell>
      </root>
    </mxGraphModel>
  </diagram>
  <diagram name="Write" id="65rjvbsk77M07EF0KJYZ">
    <mxGraphModel dx="869" dy="664" grid="1" gridSize="10" guides="1" tooltips="1" connect="1" arrows="1" fold="1" page="1" pageScale="1" pageWidth="1169" pageHeight="827" math="0" shadow="0">
      <root>
        <mxCell id="A0tkBYY9kmUF7xmbAokW-0" />
        <mxCell id="A0tkBYY9kmUF7xmbAokW-1" parent="A0tkBYY9kmUF7xmbAokW-0" />
        <mxCell id="A0tkBYY9kmUF7xmbAokW-3" value="Write data to new txt file" style="rounded=0;whiteSpace=wrap;html=1;spacingLeft=4;spacingRight=4;" parent="A0tkBYY9kmUF7xmbAokW-1" vertex="1">
          <mxGeometry x="560" y="160" width="120" height="60" as="geometry" />
        </mxCell>
        <mxCell id="A0tkBYY9kmUF7xmbAokW-33" style="edgeStyle=orthogonalEdgeStyle;rounded=0;orthogonalLoop=1;jettySize=auto;html=1;exitX=0.5;exitY=1;exitDx=0;exitDy=0;entryX=0.5;entryY=0;entryDx=0;entryDy=0;endArrow=none;endFill=0;spacingLeft=4;spacingRight=4;" parent="A0tkBYY9kmUF7xmbAokW-1" source="A0tkBYY9kmUF7xmbAokW-6" target="26BbC8rXz0_lQzoJsNF7-0" edge="1">
          <mxGeometry relative="1" as="geometry">
            <mxPoint x="420" y="399.18000000000006" as="targetPoint" />
          </mxGeometry>
        </mxCell>
        <mxCell id="A0tkBYY9kmUF7xmbAokW-50" style="edgeStyle=orthogonalEdgeStyle;rounded=0;orthogonalLoop=1;jettySize=auto;html=1;exitX=0.5;exitY=0;exitDx=0;exitDy=0;endArrow=none;endFill=0;spacingLeft=4;spacingRight=4;" parent="A0tkBYY9kmUF7xmbAokW-1" source="A0tkBYY9kmUF7xmbAokW-6" edge="1">
          <mxGeometry relative="1" as="geometry">
            <mxPoint x="420" y="240" as="targetPoint" />
          </mxGeometry>
        </mxCell>
        <mxCell id="A0tkBYY9kmUF7xmbAokW-6" value="Write minimum temperature message to file" style="rounded=0;whiteSpace=wrap;html=1;spacingLeft=4;spacingRight=4;" parent="A0tkBYY9kmUF7xmbAokW-1" vertex="1">
          <mxGeometry x="360" y="279.18" width="120" height="60" as="geometry" />
        </mxCell>
        <mxCell id="A0tkBYY9kmUF7xmbAokW-12" value="" style="endArrow=none;html=1;spacingLeft=4;spacingRight=4;" parent="A0tkBYY9kmUF7xmbAokW-1" edge="1">
          <mxGeometry width="50" height="50" relative="1" as="geometry">
            <mxPoint x="420" y="240" as="sourcePoint" />
            <mxPoint x="820" y="240" as="targetPoint" />
          </mxGeometry>
        </mxCell>
        <mxCell id="A0tkBYY9kmUF7xmbAokW-18" style="edgeStyle=orthogonalEdgeStyle;rounded=0;orthogonalLoop=1;jettySize=auto;html=1;exitX=0.5;exitY=0;exitDx=0;exitDy=0;startArrow=none;startFill=0;endArrow=none;endFill=0;entryX=0.5;entryY=1;entryDx=0;entryDy=0;spacingLeft=4;spacingRight=4;" parent="A0tkBYY9kmUF7xmbAokW-1" source="A0tkBYY9kmUF7xmbAokW-20" target="A0tkBYY9kmUF7xmbAokW-3" edge="1">
          <mxGeometry relative="1" as="geometry">
            <mxPoint x="620" y="239.18000000000006" as="targetPoint" />
          </mxGeometry>
        </mxCell>
        <mxCell id="A0tkBYY9kmUF7xmbAokW-41" style="edgeStyle=orthogonalEdgeStyle;rounded=0;orthogonalLoop=1;jettySize=auto;html=1;exitX=0.5;exitY=1;exitDx=0;exitDy=0;entryX=0.5;entryY=0;entryDx=0;entryDy=0;endArrow=none;endFill=0;spacingLeft=4;spacingRight=4;" parent="A0tkBYY9kmUF7xmbAokW-1" source="A0tkBYY9kmUF7xmbAokW-20" target="26BbC8rXz0_lQzoJsNF7-2" edge="1">
          <mxGeometry relative="1" as="geometry">
            <mxPoint x="620" y="400" as="targetPoint" />
          </mxGeometry>
        </mxCell>
        <mxCell id="A0tkBYY9kmUF7xmbAokW-20" value="Write maximum temperature message to file" style="rounded=0;whiteSpace=wrap;html=1;spacingLeft=4;spacingRight=4;" parent="A0tkBYY9kmUF7xmbAokW-1" vertex="1">
          <mxGeometry x="560" y="279.18" width="120" height="60" as="geometry" />
        </mxCell>
        <mxCell id="A0tkBYY9kmUF7xmbAokW-34" style="edgeStyle=orthogonalEdgeStyle;rounded=0;orthogonalLoop=1;jettySize=auto;html=1;exitX=0.5;exitY=1;exitDx=0;exitDy=0;entryX=0.5;entryY=0;entryDx=0;entryDy=0;endArrow=none;endFill=0;spacingLeft=4;spacingRight=4;" parent="A0tkBYY9kmUF7xmbAokW-1" source="26BbC8rXz0_lQzoJsNF7-0" target="A0tkBYY9kmUF7xmbAokW-31" edge="1">
          <mxGeometry relative="1" as="geometry">
            <mxPoint x="420" y="479.18000000000006" as="sourcePoint" />
          </mxGeometry>
        </mxCell>
        <mxCell id="A0tkBYY9kmUF7xmbAokW-35" style="edgeStyle=orthogonalEdgeStyle;rounded=0;orthogonalLoop=1;jettySize=auto;html=1;exitX=0.5;exitY=1;exitDx=0;exitDy=0;entryX=0.5;entryY=0;entryDx=0;entryDy=0;endArrow=none;endFill=0;spacingLeft=4;spacingRight=4;" parent="A0tkBYY9kmUF7xmbAokW-1" source="A0tkBYY9kmUF7xmbAokW-31" target="A0tkBYY9kmUF7xmbAokW-32" edge="1">
          <mxGeometry relative="1" as="geometry" />
        </mxCell>
        <mxCell id="A0tkBYY9kmUF7xmbAokW-31" value="Is temperature a minimum?" style="shape=hexagon;perimeter=hexagonPerimeter2;whiteSpace=wrap;html=1;fixedSize=1;spacingLeft=4;spacingRight=4;" parent="A0tkBYY9kmUF7xmbAokW-1" vertex="1">
          <mxGeometry x="360" y="479.99999999999994" width="120" height="60.82" as="geometry" />
        </mxCell>
        <mxCell id="A0tkBYY9kmUF7xmbAokW-32" value="Write date and time to file" style="rounded=0;whiteSpace=wrap;html=1;spacingLeft=4;spacingRight=4;" parent="A0tkBYY9kmUF7xmbAokW-1" vertex="1">
          <mxGeometry x="360" y="580" width="120" height="60" as="geometry" />
        </mxCell>
        <mxCell id="A0tkBYY9kmUF7xmbAokW-36" style="edgeStyle=orthogonalEdgeStyle;rounded=0;orthogonalLoop=1;jettySize=auto;html=1;exitX=0.5;exitY=1;exitDx=0;exitDy=0;entryX=0.5;entryY=0;entryDx=0;entryDy=0;endArrow=none;endFill=0;spacingLeft=4;spacingRight=4;" parent="A0tkBYY9kmUF7xmbAokW-1" source="26BbC8rXz0_lQzoJsNF7-2" target="A0tkBYY9kmUF7xmbAokW-39" edge="1">
          <mxGeometry relative="1" as="geometry">
            <mxPoint x="620" y="480" as="sourcePoint" />
          </mxGeometry>
        </mxCell>
        <mxCell id="A0tkBYY9kmUF7xmbAokW-38" style="edgeStyle=orthogonalEdgeStyle;rounded=0;orthogonalLoop=1;jettySize=auto;html=1;exitX=0.5;exitY=1;exitDx=0;exitDy=0;entryX=0.5;entryY=0;entryDx=0;entryDy=0;endArrow=none;endFill=0;spacingLeft=4;spacingRight=4;" parent="A0tkBYY9kmUF7xmbAokW-1" source="A0tkBYY9kmUF7xmbAokW-39" target="A0tkBYY9kmUF7xmbAokW-40" edge="1">
          <mxGeometry relative="1" as="geometry" />
        </mxCell>
        <mxCell id="A0tkBYY9kmUF7xmbAokW-39" value="Is temperature a maximum?" style="shape=hexagon;perimeter=hexagonPerimeter2;whiteSpace=wrap;html=1;fixedSize=1;spacingLeft=4;spacingRight=4;" parent="A0tkBYY9kmUF7xmbAokW-1" vertex="1">
          <mxGeometry x="560" y="480" width="120" height="60" as="geometry" />
        </mxCell>
        <mxCell id="A0tkBYY9kmUF7xmbAokW-40" value="Write date and time to file" style="rounded=0;whiteSpace=wrap;html=1;spacingLeft=4;spacingRight=4;" parent="A0tkBYY9kmUF7xmbAokW-1" vertex="1">
          <mxGeometry x="560" y="580" width="120" height="60" as="geometry" />
        </mxCell>
        <mxCell id="A0tkBYY9kmUF7xmbAokW-51" style="edgeStyle=orthogonalEdgeStyle;rounded=0;orthogonalLoop=1;jettySize=auto;html=1;exitX=0.5;exitY=0;exitDx=0;exitDy=0;endArrow=none;endFill=0;startArrow=none;spacingLeft=4;spacingRight=4;" parent="A0tkBYY9kmUF7xmbAokW-1" source="26BbC8rXz0_lQzoJsNF7-4" edge="1">
          <mxGeometry relative="1" as="geometry">
            <mxPoint x="820" y="240" as="targetPoint" />
            <mxPoint x="820" y="279.18000000000006" as="sourcePoint" />
          </mxGeometry>
        </mxCell>
        <mxCell id="Vhhdv0h-FMO1t0VN4cg3-0" value="Yes" style="text;html=1;strokeColor=none;fillColor=none;align=left;verticalAlign=middle;whiteSpace=wrap;rounded=0;spacingLeft=4;spacingRight=4;" parent="A0tkBYY9kmUF7xmbAokW-1" vertex="1">
          <mxGeometry x="420" y="540.82" width="60" height="30" as="geometry" />
        </mxCell>
        <mxCell id="Vhhdv0h-FMO1t0VN4cg3-1" value="Yes" style="text;html=1;strokeColor=none;fillColor=none;align=left;verticalAlign=middle;whiteSpace=wrap;rounded=0;spacingLeft=4;spacingRight=4;" parent="A0tkBYY9kmUF7xmbAokW-1" vertex="1">
          <mxGeometry x="620" y="540.82" width="60" height="30" as="geometry" />
        </mxCell>
        <mxCell id="26BbC8rXz0_lQzoJsNF7-0" value="Start loop for each temperature" style="rounded=1;whiteSpace=wrap;html=1;arcSize=50;spacingLeft=4;spacingRight=4;" parent="A0tkBYY9kmUF7xmbAokW-1" vertex="1">
          <mxGeometry x="360" y="380" width="120" height="60" as="geometry" />
        </mxCell>
        <mxCell id="26BbC8rXz0_lQzoJsNF7-2" value="Start loop for each temperature" style="rounded=1;whiteSpace=wrap;html=1;arcSize=50;spacingLeft=4;spacingRight=4;" parent="A0tkBYY9kmUF7xmbAokW-1" vertex="1">
          <mxGeometry x="560" y="380" width="120" height="60" as="geometry" />
        </mxCell>
        <mxCell id="26BbC8rXz0_lQzoJsNF7-4" value="Start loop for each temperature" style="rounded=1;whiteSpace=wrap;html=1;arcSize=50;spacingLeft=4;spacingRight=4;" parent="A0tkBYY9kmUF7xmbAokW-1" vertex="1">
          <mxGeometry x="760" y="280" width="120" height="60" as="geometry" />
        </mxCell>
        <mxCell id="A0tkBYY9kmUF7xmbAokW-46" value="Write, date, time, temperature to file" style="rounded=0;whiteSpace=wrap;html=1;spacingLeft=4;spacingRight=4;" parent="A0tkBYY9kmUF7xmbAokW-1" vertex="1">
          <mxGeometry x="760" y="384.0000000000001" width="120" height="60" as="geometry" />
        </mxCell>
        <mxCell id="26BbC8rXz0_lQzoJsNF7-6" value="" style="edgeStyle=orthogonalEdgeStyle;rounded=0;orthogonalLoop=1;jettySize=auto;html=1;exitX=0.5;exitY=1;exitDx=0;exitDy=0;entryX=0.5;entryY=0;entryDx=0;entryDy=0;endArrow=none;endFill=0;spacingLeft=4;spacingRight=4;" parent="A0tkBYY9kmUF7xmbAokW-1" source="26BbC8rXz0_lQzoJsNF7-4" target="A0tkBYY9kmUF7xmbAokW-46" edge="1">
          <mxGeometry relative="1" as="geometry">
            <mxPoint x="820" y="399.18000000000006" as="targetPoint" />
            <mxPoint x="820" y="339.18000000000006" as="sourcePoint" />
          </mxGeometry>
        </mxCell>
      </root>
    </mxGraphModel>
  </diagram>
</mxfile>
